<?xml version="1.0" encoding="UTF-8"?>
<svg id="Arriero_Logo_Gradient_Clear" xmlns="http://www.w3.org/2000/svg" xmlns:xlink="http://www.w3.org/1999/xlink" viewBox="0 0 150 150">
  <defs>
    <style>
      .cls-1 {
        fill: none;
      }

      .cls-1, .cls-2, .cls-3 {
        stroke-width: 0px;
      }

      .cls-4 {
        clip-path: url(#clippath);
      }

      .cls-2 {
        fill: url(#radial-gradient);
      }

      .cls-3 {
        fill: #80499c;
      }
    </style>
    <clipPath id="clippath">
      <path class="cls-1" d="m94.16,77.41c1.18,1.17,1.84,2.76,1.84,4.42v.9h-7v-.9c0-1.66.66-3.25,1.84-4.42l1.66-1.66,1.66,1.66Zm-31.66-10.12v-12.19c8.28-1.39,16.72-1.39,25,0v12.19c0,3.85,3.13,6.97,7,6.97v-19.92h-.02c-.24-8.23-3.61-16.07-9.48-21.91l-10-9.96-10,9.96c-5.86,5.84-9.24,13.68-9.48,21.91h-.02v19.92c3.87,0,7-3.12,7-6.97Zm-2.5,15.44v-.9c0-1.66-.66-3.25-1.84-4.42l-1.66-1.66-1.66,1.66c-1.18,1.17-1.84,2.76-1.84,4.42v.9h7Zm49.08,18.86c-9.76,8.75-22.1,13.08-34.42,13h-.32c-3.13-.05-6.26-.38-9.34-.99v1.99c0,9.9-8.06,17.93-18,17.93h-13v-13.95c0-8.77,3.67-16.68,9.57-22.3,5.25-5.69,11.58-10.36,18.71-13.64-.17-1.78-.25-3.58-.25-5.39,4.28,0,8.45.45,12.48,1.32,4.02-.87,8.2-1.32,12.48-1.32,0,1.82-.08,3.61-.25,5.39,6.36,2.91,12.11,6.94,17,11.81,1.92,1.92,3.71,3.97,5.35,6.13Zm-24.08,2.35c0-4.97-1.98-9.75-5.52-13.26l-4.98-4.97-4.98,4.97c-3.53,3.52-5.52,8.29-5.52,13.26v2.69c2.76,0,5-2.23,5-4.98v-1.99h1c0,2.49,1.25,4.81,3.33,6.19l1.17.78,1.17-.78c2.08-1.38,3.33-3.71,3.33-6.19h1v1.99c0,2.75,2.24,4.98,5,4.98v-2.69Z"/>
    </clipPath>
    <radialGradient id="radial-gradient" cx="78" cy="126" fx="78" fy="126" r="43" gradientUnits="userSpaceOnUse">
      <stop offset="0" stop-color="#f48ea3"/>
      <stop offset=".09" stop-color="#f48ea3" stop-opacity=".97"/>
      <stop offset=".22" stop-color="#f48ea3" stop-opacity=".89"/>
      <stop offset=".39" stop-color="#f48ea3" stop-opacity=".75"/>
      <stop offset=".57" stop-color="#f48ea3" stop-opacity=".56"/>
      <stop offset=".77" stop-color="#f48ea3" stop-opacity=".32"/>
      <stop offset=".98" stop-color="#f48ea3" stop-opacity=".03"/>
      <stop offset="1" stop-color="#f48ea3" stop-opacity="0"/>
    </radialGradient>
  </defs>
  <path class="cls-3" d="m94.16,77.41c1.18,1.17,1.84,2.76,1.84,4.42v.9h-7v-.9c0-1.66.66-3.25,1.84-4.42l1.66-1.66,1.66,1.66Zm-31.66-10.12v-12.19c8.28-1.39,16.72-1.39,25,0v12.19c0,3.85,3.13,6.97,7,6.97v-19.92h-.02c-.24-8.23-3.61-16.07-9.48-21.91l-10-9.96-10,9.96c-5.86,5.84-9.24,13.68-9.48,21.91h-.02v19.92c3.87,0,7-3.12,7-6.97Zm-2.5,15.44v-.9c0-1.66-.66-3.25-1.84-4.42l-1.66-1.66-1.66,1.66c-1.18,1.17-1.84,2.76-1.84,4.42v.9h7Zm49.08,18.86c-9.76,8.75-22.1,13.08-34.42,13h-.32c-3.13-.05-6.26-.38-9.34-.99v1.99c0,9.9-8.06,17.93-18,17.93h-13v-13.95c0-8.77,3.67-16.68,9.57-22.3,5.25-5.69,11.58-10.36,18.71-13.64-.17-1.78-.25-3.58-.25-5.39,4.28,0,8.45.45,12.48,1.32,4.02-.87,8.2-1.32,12.48-1.32,0,1.82-.08,3.61-.25,5.39,6.36,2.91,12.11,6.94,17,11.81,1.92,1.92,3.71,3.97,5.35,6.13Zm-24.08,2.35c0-4.97-1.98-9.75-5.52-13.26l-4.98-4.97-4.98,4.97c-3.53,3.52-5.52,8.29-5.52,13.26v2.69c2.76,0,5-2.23,5-4.98v-1.99h1c0,2.49,1.25,4.81,3.33,6.19l1.17.78,1.17-.78c2.08-1.38,3.33-3.71,3.33-6.19h1v1.99c0,2.75,2.24,4.98,5,4.98v-2.69Z"/>
  <g class="cls-4">
    <circle class="cls-2" cx="78" cy="126" r="43"/>
  </g>
</svg>